# xmcd
#
# Track frame offsets:
#	150
#	16026
#	29257
#	40011
#	56150
#	67008
#	78171
#	94430
#	111727
#	127690
#	139375
#	148875
#	171319
#	180198
#	191467
#	213735
#	229077
#	240215
#	254379
#	275564
#	289819
#
# Disc length: 4038 seconds
#
# Revision: 0
# Processed by: cddbd v1.5.1PL2 Copyright (c) Steve Scherf et al.
# Submitted via: VUPlayer 2.43
#
DISCID=350fc415
DTITLE=The Beatles - A Very Partial Collection
DYEAR=2004
DGENRE=Classic Rock
TTITLE0=Beatles - She's Leaving Home
TTITLE1=Beatles - The Fool on the Hill
TTITLE2=Beatles - Here There and Everywhere
TTITLE3=Beatles - The Long and Winding Road
TTITLE4=Beatles - In My Life
TTITLE5=Beatles - Girl
TTITLE6=Beatles - Across the Universe
TTITLE7=Beatles - Blue Jay Way
TTITLE8=Beatles - Two Of Us
TTITLE9=Beatles - When I'm 64
TTITLE10=Beatles - Eleanor Rigby
TTITLE11=Beatles - A Day in the Life
TTITLE12=Beatles - For No One
TTITLE13=Beatles - For You Blue
TTITLE14=Beatles - Within You Without You
TTITLE15=Beatles - Lucy in the Sky with Diamonds
TTITLE16=Beatles - Got to Get you into my Life
TTITLE17=Beatles - Get Back
TTITLE18=Blood Sweat and Tears - Just One Smile
TTITLE19=Beach Boys - Here Today 5.1
TTITLE20=Beach Boys - God Only Knows 5.1
EXTD=
EXTT0=
EXTT1=
EXTT2=
EXTT3=
EXTT4=
EXTT5=
EXTT6=
EXTT7=
EXTT8=
EXTT9=
EXTT10=
EXTT11=
EXTT12=
EXTT13=
EXTT14=
EXTT15=
EXTT16=
EXTT17=
EXTT18=
EXTT19=
EXTT20=
PLAYORDER=
